# xmcd CD database file
#
# Track frame offsets:
#	150
#	19685
#	32900
#	50742
#	74640
#	104707
#	121385
#	140502
#	158820
#	183292
#
# Disc length: 3052 seconds
#
# Revision: 0
# Processed by: cddbd v1.5PL3 Copyright (c) Steve Scherf et al.
# Submitted via: CDex 1.50
#
DISCID=930bea0a
DTITLE=JUN SKY WALKER(S) - EXIT
DYEAR=1996
DGENRE=JPop
TTITLE0=転がる石のように
TTITLE1=ジコマン族
TTITLE2=BALA-BALA
TTITLE3=愛しい人よ(Album Mix)
TTITLE4=忘れないで
TTITLE5=未来への終わらないゲーム
TTITLE6=地球は回る？
TTITLE7=よくある話
TTITLE8=ユア・ソング
TTITLE9=It's Alright！
EXTD=YEAR: 1996
EXTT0=
EXTT1=
EXTT2=
EXTT3=
EXTT4=
EXTT5=
EXTT6=
EXTT7=
EXTT8=
EXTT9=
PLAYORDER=
